<?xml version="1.0" encoding="UTF-8"?>
<svg xmlns="http://www.w3.org/2000/svg" viewBox="0 0 1080 1080">
  <defs>
    <style>
      .cls-1 {
        fill: #143771;
      }

      .cls-1, .cls-2 {
        stroke-width: 0px;
      }

      .cls-2 {
        fill: #fff;
      }
    </style>
  </defs>
  <g id="Capa_3" data-name="Capa 3">
    <path class="cls-1" d="M793.34,63.26C530.03-76.66,203.17,23.37,63.24,286.64c-139.93,263.31-39.9,590.17,223.42,730.1,263.31,139.93,590.17,39.9,730.1-223.42,139.93-263.31,39.9-590.17-223.42-730.1v.04Z"/>
  </g>
  <g id="Capa_2" data-name="Capa 2">
    <g>
      <path class="cls-2" d="M431.95,660.66c-23.75,0-43,17.81-43,39.79s19.25,39.79,43,39.79,43-17.81,43-39.79-19.25-39.79-43-39.79ZM461.72,706.26c0,1.25-1.1,2.27-2.45,2.27h-16.13c-1.35,0-2.45,1.01-2.45,2.27v14.93c0,1.25-1.1,2.27-2.45,2.27h-12.57c-1.35,0-2.45-1.01-2.45-2.27v-14.93c0-1.25-1.1-2.27-2.45-2.27h-16.13c-1.35,0-2.45-1.01-2.45-2.27v-11.63c0-1.25,1.1-2.27,2.45-2.27h16.13c1.35,0,2.45-1.02,2.45-2.27v-14.93c0-1.25,1.1-2.27,2.45-2.27h12.57c1.35,0,2.45,1.02,2.45,2.27v14.93c0,1.25,1.1,2.27,2.45,2.27h16.13c1.35,0,2.45,1.01,2.45,2.27v11.63Z"/>
      <path class="cls-2" d="M648.04,660.66c-23.75,0-43,17.81-43,39.79s19.25,39.79,43,39.79,43-17.81,43-39.79-19.25-39.79-43-39.79ZM648.04,735.66c-21.02,0-38.06-15.77-38.06-35.22s17.04-35.22,38.06-35.22,38.06,15.77,38.06,35.22-17.04,35.22-38.06,35.22Z"/>
      <ellipse class="cls-2" cx="648.04" cy="700.45" rx="31.73" ry="29.36"/>
      <path class="cls-2" d="M1010.6,639.07l-76.86-178.96c-17.33-37.67-30.65-80.43-50.05-116.96-.05-.1-.11-.2-.17-.3-26.43-11.97-60.37-24.38-100.91-33.65-2.52-.58-4.98-1.18-7.56-1.73h0c-2.46-.53-4.97-1.03-7.48-1.53-25.17-5.04-52.66-8.8-82.41-10.46-8.01,5.54-15.48,12.09-22.16,19.75-5.41,6.09-51.35,55.96-127.38,54.03-70.84-1.8-112.53-47.17-118.62-54.03-6.69-7.66-14.15-14.21-22.16-19.75-29.76,1.66-57.24,5.42-82.41,10.46-2.51.5-5.02,1-7.48,1.53-2.57.55-5.03,1.16-7.56,1.73-40.54,9.27-74.47,21.68-100.91,33.65-.05.1-.11.2-.17.3-19.4,36.53-32.72,79.3-50.05,116.96l-76.86,178.96c-14.79,58.88,16.71,106,62.31,129.39,1.94,1,3.9,1.97,5.89,2.88,1.98.9,3.98,1.75,6,2.57,57.31,23.12,131.01,10.59,165.56-58.44,28.48-56.87,47.67-121.78,74.04-179.87,7.93-11.65,22.63-11.77,33.03-2.72,35.16,40.69,60.55,112.05,123.77,111.6,63.22.44,88.61-70.91,123.77-111.6,10.4-9.06,25.1-8.93,33.03,2.72,26.37,58.09,45.56,123,74.04,179.87,34.55,69.03,108.25,81.56,165.56,58.44,2.02-.81,4.03-1.67,6.01-2.57,1.99-.91,3.95-1.88,5.89-2.88,45.6-23.39,77.1-70.51,62.31-129.39Z"/>
    </g>
  </g>
</svg>